<?xml version="1.0" encoding="utf-8"?>
<!DOCTYPE svg PUBLIC "-//W3C//DTD SVG 1.1//EN" "http://www.w3.org/Graphics/SVG/1.1/DTD/svg11.dtd">
<!-- Creator: CorelDRAW 2019 (64-Bit Evaluation Version) --><svg height="800mm" style="shape-rendering:geometricPrecision; text-rendering:geometricPrecision; image-rendering:optimizeQuality; fill-rule:evenodd; clip-rule:evenodd" version="1.1" viewBox="38700 38400 2600 2650" width="800mm" xml:space="preserve" xmlns="http://www.w3.org/2000/svg" xmlns:xlink="http://www.w3.org/1999/xlink">
<defs>
<font font-style="normal" font-variant="normal" font-weight="400" horiz-adv-x="623" id="FontID0" style="fill-rule:nonzero">
<font-face font-family="Humanst521 BT">
<font-face-src>
<font-face-name name="Humanst521 BT Roman"/>
</font-face-src>
</font-face>
<missing-glyph><path d="M0 0z"/></missing-glyph>
<glyph d="M203.162 288.996l212.838 0 -107.829 245.999 -105.009 -245.999zm-225.157 -288.996l295.997 683.001 71.1597 0 299.841 -683.001 -101.004 0 -87.9964 201 -290.999 0 -86.843 -201 -100.155 0z" horiz-adv-x="623" unicode="A"/>
<glyph d="M170.001 300.995l0 -211.989 130 0c47.4985,0 82.1652,8.33026 104,25.167 21.9951,16.8207 33.0007,42.997 33.0007,78.8331 0,37.1658 -12.3352,64.4955 -36.8294,81.8288 -24.5102,17.4936 -63.1658,26.1602 -115.839,26.1602l-114.333 0zm-96.9995 -300.995l0 683.001 199.99 0c68.18,0 120.677,-15.5071 157.506,-46.3291 37.0056,-30.9982 55.5084,-74.8442 55.5084,-131.842 0,-35.1633 -8.34628,-64.4955 -24.8466,-87.8362 -16.6605,-23.501 -41.9877,-41.4911 -76.1578,-54.1627 49.6612,-11.8386 88.1566,-33.1609 115.326,-63.9988 27.1695,-30.9982 40.6741,-68.5004 40.6741,-112.827 0,-56.6778 -20.6655,-101.837 -62.1726,-135.511 -41.4911,-33.6575 -97.6563,-50.4942 -168.656,-50.4942l-237.172 0zm96.9995 390l66.0013 0c49.8374,0 86.827,9.00309 110.825,26.8331 24.1738,17.83 36.1726,45.1596 36.1726,82.005 0,33.4973 -9.4997,57.9914 -28.4991,73.1621 -19.1596,15.3309 -49.501,23.0043 -91.1683,23.0043l-93.331 0 0 -205.005z" horiz-adv-x="579" unicode="B"/>
<glyph d="M73.0019 0l0 683.001 411.002 0 0 -87.0032 -314.003 0 0 -206.991 305 0 0 -88.0124 -305 0 0 -212.998 323.999 0 0 -87.9964 -420.999 0z" horiz-adv-x="543" unicode="E"/>
<glyph d="M72.9997 0l0 682.99 389.005 0 0 -87.0013 -291.999 0 0 -201.981 282.999 0 0 -88.0067 -282.999 0 0 -306 -97.006 0z" horiz-adv-x="503" unicode="F"/>
<glyph d="M75.9976 0l0 683.001 96.9995 0 0 -595.005 325.008 0 0 -87.9964 -422.008 0z" horiz-adv-x="504" unicode="L"/>
<glyph d="M73.0019 0l0 683.001 85.0007 0 449.994 -530.173 0 530.173 96.9995 0 0 -683.001 -86.827 0 -448.168 530.67 0 -530.67 -96.9995 0z" horiz-adv-x="777" unicode="N"/>
<glyph d="M37.9988 53.3297l0 128.671c30.9982,-35.4997 60.5065,-61.0032 88.6692,-76.6705 28.1627,-15.4911 58.1677,-23.3247 89.9989,-23.3247 33.8337,0 60.5065,7.83365 80.0026,23.6612 19.496,15.8275 29.3321,37.1658 29.3321,64.1751 0,22.1553 -6.50401,41.6513 -19.6722,58.3279 -13.1682,16.8367 -44.663,40.9945 -94.3242,72.5053 -77.3433,49.8214 -125.675,88.493 -145.507,115.823 -19.6722,27.3297 -29.4923,60.0099 -29.4923,97.6723 0,53.1695 18.8232,96.6631 56.3254,130.833 37.6624,33.9939 86.1702,50.9908 145.331,50.9908 26.3364,0 52.3365,-3.82872 78.0001,-11.4862 25.5034,-7.67345 51.3433,-19.512 77.3433,-35.4997l0 -111.001c-30.005,24.1578 -57.5109,41.6673 -82.9983,52.6569 -25.3432,10.8293 -50.6704,16.3401 -76.0136,16.3401 -30.6618,0 -55.6526,-7.49724 -74.9884,-22.6679 -19.3358,-15.1707 -29.0117,-34.6667 -29.0117,-58.5041 0,-33.8337 40.1775,-75.8374 120.34,-125.995l14.6741 -8.84289c65.4887,-40.6581 108.486,-76.4942 128.655,-107.492 20.1688,-31.1744 30.3414,-69.6698 30.3414,-115.502 0,-52.0001 -18.8392,-94.997 -56.6778,-129.007 -37.8226,-33.9939 -86.1541,-50.9908 -145.155,-50.9908 -36.8454,0 -70.0062,5.15836 -99.6748,15.6673 -29.6686,10.3327 -58.1677,26.8331 -85.4973,49.6612z" horiz-adv-x="460" unicode="S"/>
<glyph d="M257.998 0l0 593.996 -250.997 0 0 89.0057 598.994 0 0 -89.0057 -250.997 0 0 -593.996 -96.9995 0z" horiz-adv-x="612" unicode="T"/>
<glyph d="M281.002 -4.99816l-300.995 688 102.158 0 212.838 -487.16 217.324 487.16 100.668 0 -307.002 -688 -24.9908 0z" horiz-adv-x="592" unicode="V"/>
<glyph d="M235.992 -5.00233l-252.985 687.992 101.003 0 167.161 -466.148 184.007 466.148 61.9897 0 182.168 -467.154 169.662 467.154 98.9922 0 -256.982 -687.992 -22.0201 0 -203.992 526.005 -206.003 -526.005 -23.0009 0z" horiz-adv-x="931" unicode="W"/>
<glyph d="M279.002 91.832l0 132.169c-60.6655,-18.8323 -102.499,-36.3405 -125.5,-52.1566 -23.0009,-16.0124 -34.5014,-34.5014 -34.5014,-55.6877 0,-18.6607 6.0077,-32.981 17.8269,-42.9857 12.0154,-10.1763 28.6653,-15.1786 50.1704,-15.1786 16.0124,0 31.6569,2.84446 47.0072,8.68051 15.3258,5.6644 30.3328,14.1487 44.9964,25.1588zm3.33489 -54.8295c-22.6821,-16.0124 -44.3344,-27.5128 -64.6625,-34.5014 -20.3526,-7.01307 -42.1765,-10.4951 -65.6678,-10.4951 -40.3374,0 -72.0188,9.66136 -94.8481,28.9841 -22.8293,19.5189 -34.1581,46.1735 -34.1581,80.0128 0,31.8285 12.3342,60.0034 37.1742,83.9852 24.6684,24.1779 61.818,44.506 111.67,61.1805l107.158 35.8255c0.318776,2.67281 0.490424,5.17398 0.662073,7.84679 0.171649,2.50116 0.343297,6.32648 0.343297,11.1572 0,26.9979 -6.66977,46.3451 -19.8377,58.1643 -13.1679,11.8438 -34.9918,17.8269 -65.3491,17.8269 -24.9871,0 -50.9796,-5.32111 -77.6587,-15.8162 -26.6546,-10.6667 -53.5053,-26.3358 -80.1599,-47.1788l0 88.8404c23.1726,19.0039 48.9934,33.1772 77.6587,42.8386 28.6653,9.48971 58.9981,14.3204 91.3416,14.3204 57.9927,0 99.9975,-12.8246 126.505,-38.3267 26.3358,-25.5021 39.5037,-66.6732 39.5037,-123.661l0 -190.996c0,-16.0124 1.32415,-27.3412 4.14409,-34.0109 2.84446,-6.66977 7.35637,-10.0047 13.8545,-10.0047 5.6644,0 11.3288,1.49579 17.4836,4.34026 6.0077,2.99159 15.8407,9.83301 29.499,20.6714l0 -55.0011c-16.3311,-14.0016 -32.6623,-24.3496 -49.3367,-30.9948 -16.4783,-6.66977 -33.6676,-10.0047 -51.6662,-10.0047 -17.1649,0 -30.1611,3.65366 -38.6454,10.8384 -8.68051,7.1602 -13.6828,18.489 -15.007,34.1581z" horiz-adv-x="433" unicode="a"/>
<glyph d="M453.005 47.6693c-30.014,-19.1756 -60.6655,-33.6676 -92.4941,-43.329 -31.6814,-9.51423 -64.5153,-14.3449 -98.3546,-14.3449 -71.1606,0 -128.001,21.9955 -170.496,66.1828 -42.4953,44.1627 -63.6571,102.989 -63.6571,176.651 0,67.3353 20.4997,122.165 61.3276,164.17 40.8278,42.0049 94.0144,62.995 159.829,62.995 65.0058,0 116.672,-21.3335 154.68,-64.0004 38.155,-42.6669 57.159,-100.169 57.159,-172.826l0 -13.1679 -338.001 0c2.67281,-42.6669 16.6744,-75.9913 42.0049,-99.9975 25.3304,-24.0063 59.3414,-35.9972 102.008,-35.9972 28.6653,0 58.4831,5.32111 89.6496,15.8162 30.9948,10.6667 63.1667,26.6791 96.3439,48.1842l0 -90.3362zm-330.007 226.331l239.008 0c-3.01611,33.0056 -14.8353,59.3414 -35.6784,79.1545 -20.8185,19.8377 -47.0072,29.8423 -78.1737,29.8423 -34.4768,0 -62.4801,-9.17094 -83.6664,-27.6599 -21.1618,-18.3419 -34.9918,-45.5114 -41.4899,-81.3369z" horiz-adv-x="487" unicode="e"/>
<glyph d="M84.0097 -84.1568c0,-22.0201 10.9855,-38.67 33.1527,-49.9988 22.1672,-11.1817 54.6823,-16.8461 97.668,-16.8461 42.0049,0 74.8388,5.49275 98.5018,16.6744 23.8346,10.9855 35.6784,26.1641 35.6784,45.3152 0,21.1863 -13.5112,37.1742 -40.3374,47.8409 -26.8507,10.8384 -67.0165,16.1595 -120.669,16.1595 -30.6761,0 -55.6632,-5.6644 -75.0104,-16.8216 -19.3227,-11.3288 -28.9841,-25.3304 -28.9841,-42.3236zm53.162 227.998c-34.0109,10.4951 -59.8318,27.6599 -77.5116,51.8133 -17.8269,24.0063 -26.6546,53.8486 -26.6546,89.3553 0,54.6578 18.8323,96.0006 56.6685,123.979 37.8362,28.0032 93.8182,42.0049 168.167,42.0049l179.152 0 0 -72.9997 -76.1629 0c12.3342,-13.3395 21.5051,-27.4883 27.3412,-42.3236 5.83605,-14.8353 8.82764,-31.3381 8.82764,-49.5083 0,-37.8362 -11.5005,-70.1552 -34.5014,-96.8343 -22.8293,-26.6546 -53.8241,-43.5006 -92.4941,-50.3175 -8.50886,-1.66744 -19.8377,-3.50653 -34.1581,-5.83605 -48.503,-7.50349 -72.8526,-19.8377 -72.8526,-37.0025 0,-17.3365 34.673,-32.6623 104.019,-46.3451 16.9932,-3.33489 30.3328,-5.83605 40.1658,-7.82227 43.6478,-9.17094 76.6533,-24.3496 99.1638,-45.8302 22.486,-21.5051 33.6676,-48.8463 33.6676,-81.999 0,-46.0018 -19.1756,-81.0181 -57.3306,-105 -38.3512,-24.1779 -94.0144,-36.1688 -166.842,-36.1688 -71.3322,0 -125.843,11.6476 -163.508,34.8201 -37.493,23.3442 -56.3252,57.1835 -56.3252,101.346 0,31.6569 10.9855,57.6494 33.0056,78.1491 21.9955,20.4997 54.3145,34.673 96.8343,42.5198 -17.1649,7.82227 -29.8423,16.1595 -37.8362,24.9871 -8.01844,8.99929 -12.0154,19.0039 -12.0154,30.014 0,11.8192 4.83068,22.3143 14.6637,31.6569 9.83301,9.48971 25.3549,18.6607 46.5168,27.3412zm78.6641 231.162c-27.6599,0 -50.3421,-7.99392 -67.6786,-24.1779 -17.4836,-16.1595 -26.1641,-36.6592 -26.1641,-61.818 0,-26.3358 8.33722,-47.0072 24.84,-61.8425 16.6744,-14.8353 39.6753,-22.1672 69.0027,-22.1672 29.499,0 52.9904,7.50349 70.3269,22.5105 17.1649,14.9825 25.8454,35.4822 25.8454,61.4992 0,25.1588 -8.99929,45.6585 -27.1695,61.818 -17.9986,16.184 -40.9995,24.1779 -69.0027,24.1779z" horiz-adv-x="446" unicode="g"/>
<glyph d="M58.9981 0l0 682.99 89.9929 0 0 -286.825c22.5105,21.5051 44.8493,37.0025 67.1636,47.0072 22.3388,9.83301 46.3451,14.8353 72.0188,14.8353 49.1651,0 87.9821,-14.1733 116.329,-42.4953 28.322,-28.1749 42.4953,-67.1882 42.4953,-116.5l0 -299.012 -90.9983 0 0 276.011c0,36.8309 -7.50349,63.8287 -22.6576,81.1652 -15.1786,17.1649 -38.8416,25.8208 -71.0135,25.8208 -23.8346,0 -44.6531,-4.48738 -62.5046,-13.6583 -17.9986,-9.17094 -34.8201,-23.8346 -50.8325,-44.0156l0 -325.323 -89.9929 0z" horiz-adv-x="500" unicode="h"/>
<glyph d="M53.9957 583.997c0,14.3449 4.83068,26.5074 14.6637,36.3405 9.83301,9.83301 21.9955,14.6637 36.3405,14.6637 14.3449,0 26.5074,-4.83068 36.3405,-14.6637 9.83301,-9.83301 14.6637,-21.9955 14.6637,-36.3405 0,-14.3204 -4.83068,-26.5074 -14.6637,-36.3405 -9.83301,-9.83301 -21.9955,-14.6637 -36.3405,-14.6637 -14.3449,0 -26.5074,4.83068 -36.3405,14.6637 -9.83301,9.83301 -14.6637,22.0201 -14.6637,36.3405zm6.0077 -583.997l0 450.994 89.9929 0 0 -450.994 -89.9929 0z" horiz-adv-x="211" unicode="i"/>
<glyph d="M458.007 450.994l-188.838 -206.003 226.821 -244.992 -122.998 0 -220.004 240.161 194.184 210.833 110.836 0zm-398.004 -450.994l0 682.99 89.9929 0 0 -682.99 -89.9929 0z" horiz-adv-x="482" unicode="k"/>
<glyph d="M60.0034 0l0 682.99 89.9929 0 0 -682.99 -89.9929 0z" horiz-adv-x="211" unicode="l"/>
<glyph d="M57.0118 0l0 450.994 89.9929 0 0 -54.8295c22.486,21.3335 44.8248,37.0025 67.1636,47.0072 22.3388,9.83301 46.3206,14.8353 71.9943,14.8353 48.8463,0 87.3446,-14.1733 115.495,-42.4953 28.1749,-28.1749 42.3482,-67.1882 42.3482,-116.5l0 -299.012 -90.0174 0 0 276.011c0,36.4876 -7.65062,63.4854 -23.148,80.822 -15.4974,17.5082 -39.5037,26.1641 -72.0188,26.1641 -23.148,0 -43.329,-4.48738 -60.8126,-13.4867 -17.3365,-8.85216 -34.3542,-23.6875 -51.0041,-44.1872l0 -325.323 -89.9929 0z" horiz-adv-x="499" unicode="n"/>
<glyph d="M121.993 226.012c0,-42.0049 14.1733,-77.8549 42.4953,-107.501 28.3465,-29.6707 62.5046,-44.506 102.523,-44.506 39.6508,0 73.8334,14.8353 102.327,44.6531 28.4937,29.8423 42.6669,65.6678 42.6669,107.354 0,41.3183 -14.1733,76.825 -42.4953,106.496 -28.3465,29.6707 -62.5046,44.4815 -102.499,44.4815 -40.0186,0 -74.1767,-14.8108 -102.523,-44.4815 -28.322,-29.6707 -42.4953,-65.1774 -42.4953,-106.496zm-93.9898 0c0,65.4962 23.3197,120.988 69.8364,166.646 46.4922,45.5114 103.332,68.3406 170.324,68.3406 31.6814,0 61.8425,-6.0077 90.6795,-17.8269 28.8124,-11.8438 54.4862,-28.837 77.3154,-51.0041 23.1726,-23.4913 40.6807,-49.1651 52.8432,-77.1683 11.9909,-28.1749 17.9986,-57.6739 17.9986,-88.9875 0,-31.0193 -6.17935,-61.0088 -18.489,-90.3362 -12.5058,-29.3519 -29.8423,-55.0011 -52.3528,-76.8495 -22.8293,-22.3143 -48.3313,-39.332 -76.825,-50.6608 -28.4937,-11.5005 -58.8264,-17.1649 -91.1699,-17.1649 -66.992,0 -123.832,22.8293 -170.324,68.3406 -46.5168,45.6585 -69.8364,101.15 -69.8364,166.671z" horiz-adv-x="535" unicode="o"/>
<glyph d="M57.9927 0l0 450.994 90.0174 0 0 -97.9868c25.1588,39.332 47.6447,66.992 67.6541,82.4894 20.0093,15.6691 41.8332,23.4913 65.1774,23.4913 16.3311,0 32.8339,-3.65366 49.6555,-10.8139 16.8461,-7.18472 34.673,-18.1702 53.5053,-33.3489l-48.8463 -79.8166c-14.6637,12.653 -28.6653,21.8239 -41.9803,27.4883 -13.3395,5.6644 -27.3412,8.50886 -42.0049,8.50886 -24.4967,0 -45.8302,-10.1763 -64.0004,-30.6761 -18.3419,-20.4997 -31.3381,-48.9934 -39.1604,-85.5055l0 -254.825 -90.0174 0z" horiz-adv-x="375" unicode="r"/>
<glyph d="M28.0032 30.8232l0 96.1722c26.9979,-17.8269 52.9904,-31.4853 78.002,-40.8278 25.1588,-9.48971 47.988,-14.1733 68.8311,-14.1733 23.1726,0 41.1711,4.34026 54.339,12.9962 13.1679,8.50886 19.8131,20.3526 19.8131,35.3351 0,18.8323 -24.4967,40.5091 -73.6618,64.8341 -14.3204,7.18472 -25.3304,12.8491 -33.1527,17.0177 -42.1765,21.4806 -71.0135,42.3236 -86.6825,62.3329 -15.6691,19.9848 -23.4913,44.4815 -23.4913,73.4901 0,37.6646 13.5112,67.6541 40.5091,89.8212 26.9979,22.1672 64.1475,33.1772 111.326,33.1772 25.5021,0 49.8271,-2.99159 73.343,-8.99929 23.3197,-6.0077 46.3206,-15.3258 68.8311,-28.0032l0 -88.0067c-27.6845,15.3503 -53.0149,26.6791 -75.8441,34.0109 -23.0009,7.33185 -44.6777,11.01 -65.1774,11.01 -18.8323,0 -33.3243,-3.33489 -43.6478,-9.83301 -10.1763,-6.52265 -15.3503,-15.8407 -15.3503,-28.3465 0,-22.6576 31.3381,-49.6555 94.186,-80.5032l8.31269 -3.99696c49.1896,-24.6684 81.1898,-46.4922 96.0006,-65.1529 15.007,-18.8568 22.5105,-42.5198 22.5105,-71.1851 0,-39.8225 -14.8353,-71.5039 -44.6777,-95.3385 -29.6462,-23.8101 -69.1498,-35.6539 -118.315,-35.6539 -28.1749,0 -55.1728,3.33489 -80.6748,9.83301 -25.5021,6.49812 -50.6608,16.5028 -75.3292,29.9895z" horiz-adv-x="376" unicode="s"/>
<glyph d="M306 14.0016c-14.0016,-7.84679 -29.0086,-13.6583 -45.1681,-17.3365 -15.9878,-3.82531 -33.3243,-5.6644 -51.8379,-5.6644 -50.6608,0 -86.3392,11.9909 -106.986,36.1688 -20.6714,24.1534 -31.0193,67.9974 -31.0193,131.826l0 213.997 -76.9966 0 0 8.85216 157.843 174.15 10.1763 0 0 -105 140.997 0 0 -78.002 -140.997 0 0 -207.155c0,-37.3458 4.65903,-61.4992 13.83,-72.5093 9.31806,-10.8384 26.6546,-16.3311 51.985,-16.3311 13.6828,0 26.9979,1.83909 40.0186,5.34563 12.9962,3.65366 25.6492,9.14642 38.155,16.6499l0 -84.9906z" horiz-adv-x="321" unicode="t"/>
<glyph d="M194.012 -8.99929l-200.02 459.994 95.0197 0 128.982 -299.159 124.004 299.159 58.9981 0 126.015 -298.154 128.835 298.154 95.1669 0 -201 -459.994 -44.0156 0 -133.665 326.843 -134.327 -326.843 -43.9911 0z" horiz-adv-x="747" unicode="w"/>
</font>
</defs>
</svg>
