<svg xmlns="http://www.w3.org/2000/svg" width="160" height="160" viewBox="0 0 200 200">
  <!-- Outer dashed circle -->
  <circle cx="100" cy="100" r="80" fill="none" stroke="#111" stroke-width="4" stroke-dasharray="8 8" />

  <!-- Top and bottom labels -->
  <text x="100" y="35" text-anchor="middle" font-family="Arial, Helvetica, sans-serif" font-size="16" font-weight="600" fill="#111">CRUELTY</text>
  <text x="100" y="182" text-anchor="middle" font-family="Arial, Helvetica, sans-serif" font-size="16" font-weight="600" fill="#111">FREE</text>

  <!-- Bunny icon (stylized outline) -->
  <!-- Head -->
  <circle cx="88" cy="92" r="10" fill="none" stroke="#111" stroke-width="4" />
  <!-- Eye -->
  <circle cx="92" cy="92" r="2" fill="#111" />
  <!-- Ears -->
  <path d="M86 80 C 76 60, 86 55, 96 72" fill="none" stroke="#111" stroke-width="4" stroke-linecap="round" />
  <path d="M92 78 C 84 62, 94 58, 104 72" fill="none" stroke="#111" stroke-width="4" stroke-linecap="round" />

  <!-- Body -->
  <path d="M76 108 C 74 120, 86 124, 100 122 C 118 120, 130 118, 136 108 C 140 100, 134 92, 124 92 C 118 92, 112 96, 106 102 C 100 108, 90 110, 82 108" fill="none" stroke="#111" stroke-width="4" stroke-linecap="round" stroke-linejoin="round" />

  <!-- Front leg -->
  <path d="M78 116 L 78 128" fill="none" stroke="#111" stroke-width="4" stroke-linecap="round" />
  <circle cx="78" cy="130" r="2.5" fill="#111" />

  <!-- Tail -->
  <path d="M136 106 C 142 106, 144 110, 142 114" fill="none" stroke="#111" stroke-width="4" stroke-linecap="round" />

  <!-- Heart (on body) -->
  <path d="M104 116 C 104 112, 108 110, 110 112 C 112 110, 116 112, 116 116 C 116 120, 112 124, 110 126 C 108 124, 104 120, 104 116 Z" fill="none" stroke="#111" stroke-width="4" />
</svg>